<?xml version="1.0" standalone="no"?>
<!DOCTYPE svg PUBLIC "-//W3C//DTD SVG 20010904//EN"
 "http://www.w3.org/TR/2001/REC-SVG-20010904/DTD/svg10.dtd">
<svg version="1.0" xmlns="http://www.w3.org/2000/svg"
 width="500.000000pt" height="500.000000pt" viewBox="0 0 500.000000 500.000000"
 preserveAspectRatio="xMidYMid meet">
<metadata>
Created by potrace 1.14, written by Peter Selinger 2001-2017
</metadata>
<g transform="translate(0.000000,500.000000) scale(0.100000,-0.100000)"
fill="#000000" stroke="none">
<path d="M2338 4525 c-2 -2 -34 -6 -72 -9 -38 -4 -112 -16 -165 -27 -53 -11
-106 -22 -118 -25 -45 -9 -230 -73 -312 -109 -82 -34 -261 -130 -271 -145 -3
-3 -12 -9 -20 -12 -43 -16 -249 -185 -345 -282 -99 -100 -235 -266 -268 -328
-7 -13 -25 -42 -40 -65 -140 -218 -250 -542 -284 -843 -10 -85 -10 -354 0
-453 6 -61 34 -213 51 -282 129 -506 443 -944 885 -1232 95 -63 307 -173 332
-173 8 0 19 -4 25 -9 9 -10 205 -77 247 -85 12 -3 54 -11 92 -19 160 -35 238
-42 430 -42 218 0 345 16 535 66 747 199 1322 799 1491 1554 35 161 47 283 44
480 -4 250 -21 361 -95 598 -204 658 -738 1178 -1405 1366 -60 17 -128 33
-150 36 -22 4 -49 9 -59 12 -55 16 -228 31 -368 31 -86 0 -158 -1 -160 -3z"/>
</g>
</svg>
